<?xml version="1.0" standalone="no"?>
<!DOCTYPE svg PUBLIC "-//W3C//DTD SVG 20010904//EN"
 "http://www.w3.org/TR/2001/REC-SVG-20010904/DTD/svg10.dtd">
<svg version="1.0" xmlns="http://www.w3.org/2000/svg"
 width="1179.000000pt" height="823.000000pt" viewBox="0 0 1179.000000 823.000000"
 preserveAspectRatio="xMidYMid meet">

<g transform="translate(0.000000,823.000000) scale(0.100000,-0.100000)"
fill="#000000" stroke="none">
<path d="M9075 7660 c-432 -37 -664 -107 -1160 -350 -283 -138 -432 -241 -576
-398 -78 -85 -279 -389 -335 -507 -81 -170 -156 -464 -155 -604 1 -191 88
-524 182 -700 130 -243 255 -352 603 -530 434 -222 1282 -655 1420 -726 55
-27 101 -55 103 -60 2 -6 -77 -59 -174 -119 -98 -60 -194 -119 -213 -132 -19
-12 -66 -41 -105 -64 -94 -57 -125 -87 -125 -123 0 -17 24 -71 59 -132 33 -57
64 -121 70 -142 15 -54 14 -159 -3 -192 -62 -119 -314 -229 -566 -246 -111 -8
-341 9 -424 30 -59 15 -378 167 -448 213 -36 23 -58 23 -58 -1 0 -7 -6 -23
-13 -37 -28 -54 -128 -378 -247 -800 -10 -36 -41 -144 -70 -240 -28 -96 -72
-245 -97 -330 -65 -223 -73 -265 -55 -291 10 -14 21 -19 35 -15 11 3 55 1 96
-5 474 -60 713 -81 931 -81 327 1 756 40 974 88 319 70 756 254 1016 427 181
121 467 459 670 792 158 258 206 521 164 885 -16 143 -24 178 -103 445 -78
267 -102 324 -182 440 -77 112 -383 407 -510 491 -74 49 -203 111 -289 139
-138 45 -231 122 -289 241 -73 150 -61 299 33 411 37 44 131 98 221 126 202
63 417 61 772 -10 108 -21 135 -24 148 -13 8 7 15 18 15 25 0 7 52 122 116
256 64 134 136 285 159 334 44 92 111 233 217 455 129 269 151 318 178 388 16
40 32 87 35 104 4 17 16 49 26 72 26 58 24 102 -5 129 -25 23 -290 146 -385
179 -31 10 -105 32 -166 48 -60 16 -130 36 -155 45 -122 44 -213 57 -440 65
-124 5 -261 13 -305 20 -143 19 -358 19 -590 0z"/>
<path d="M3768 7373 c7 -3 16 -2 19 1 4 3 -2 6 -13 5 -11 0 -14 -3 -6 -6z"/>
<path d="M5620 7094 c-14 -2 -295 -10 -625 -19 -876 -22 -887 -23 -901 -37 -7
-7 -27 -42 -46 -78 -27 -51 -348 -622 -388 -690 -25 -42 -165 -290 -197 -348
-20 -37 -39 -71 -43 -77 -4 -5 -19 -30 -32 -55 -14 -25 -36 -63 -48 -85 -13
-22 -49 -85 -80 -140 -31 -55 -173 -305 -315 -555 -142 -250 -271 -480 -288
-510 -16 -30 -33 -59 -37 -65 -4 -5 -17 -27 -29 -47 -12 -21 -29 -53 -40 -70
-10 -18 -114 -202 -231 -408 -117 -206 -250 -440 -295 -520 -45 -80 -140 -246
-210 -370 -70 -124 -174 -306 -230 -405 -275 -485 -503 -887 -650 -1145 -179
-314 -198 -350 -193 -356 2 -2 107 1 234 6 436 17 1000 32 1727 46 l357 7 28
56 c15 31 85 169 156 306 244 473 355 691 521 1020 91 182 170 334 176 340 13
13 11 62 -3 71 -6 4 -99 11 -207 15 -108 5 -261 13 -341 19 -80 5 -262 14
-405 20 -297 11 -367 18 -363 31 2 6 69 44 148 85 150 78 500 263 605 319 33
18 143 76 245 130 255 135 384 206 392 219 4 6 8 20 8 31 0 12 22 88 49 170
43 133 108 335 231 720 21 66 71 221 110 345 39 124 91 286 115 360 24 74 47
150 50 168 12 60 29 27 46 -89 14 -94 39 -264 74 -499 3 -19 19 -127 35 -240
17 -113 37 -248 45 -300 8 -52 19 -133 26 -180 6 -47 14 -88 16 -92 5 -9 95
35 111 55 6 7 32 70 56 138 25 68 66 180 91 249 85 230 137 375 151 415 7 22
27 76 44 120 18 44 38 98 45 120 15 44 34 96 155 425 45 124 102 279 126 345
60 168 216 594 276 755 49 133 78 229 78 263 0 15 -13 17 -152 16 -84 -1 -164
-3 -178 -5z"/>
<path d="M6905 7079 c-10 -15 3 -25 16 -12 7 7 7 13 1 17 -6 3 -14 1 -17 -5z"/>
<path d="M6152 6853 c-21 -42 -56 -150 -66 -203 -6 -34 -61 -230 -241 -870
-46 -162 -102 -362 -125 -445 -22 -82 -51 -186 -64 -230 -13 -44 -33 -114 -44
-155 -38 -136 -71 -253 -106 -375 -19 -66 -44 -156 -56 -201 -24 -91 -7 -75
-190 -171 -52 -28 -266 -137 -475 -243 -209 -106 -384 -196 -390 -200 -14 -10
-365 -186 -505 -252 -378 -181 -487 -237 -519 -272 -41 -42 -36 -51 34 -66 55
-12 1405 -48 1909 -51 175 -1 332 -5 348 -8 27 -6 33 -15 64 -96 18 -50 43
-112 53 -140 11 -27 63 -162 116 -300 53 -137 105 -270 115 -295 10 -25 31
-76 45 -115 15 -38 42 -108 60 -155 98 -246 133 -340 185 -500 62 -189 98
-280 111 -280 7 0 43 72 67 135 7 17 59 219 118 450 58 231 128 506 154 610
27 105 80 316 119 470 39 154 74 288 77 297 6 21 10 22 509 153 204 54 447
118 540 143 94 24 202 53 240 63 75 19 181 47 392 103 72 20 157 47 188 61 74
32 71 52 -10 83 -33 12 -71 29 -85 36 -14 7 -97 37 -185 66 -88 29 -182 60
-210 70 -27 10 -169 58 -315 105 -146 48 -314 107 -375 130 -60 24 -130 50
-155 58 -25 9 -106 39 -180 67 -74 28 -153 57 -175 65 -22 8 -98 36 -170 63
l-130 49 -12 49 c-7 27 -21 83 -32 124 -99 382 -300 1172 -316 1240 -7 30 -27
109 -45 175 -17 66 -60 233 -95 370 -35 138 -75 288 -89 334 -14 47 -26 86
-26 88 0 2 -9 3 -20 3 -13 0 -26 -13 -38 -37z"/>
<path d="M4805 2875 c-2 -5 -26 -86 -54 -180 -28 -93 -115 -397 -195 -675 -79
-278 -164 -574 -189 -658 -35 -123 -41 -155 -30 -159 20 -8 1714 15 1722 23
11 10 -11 77 -178 539 -40 110 -87 238 -103 285 -17 47 -36 99 -43 115 -7 17
-18 46 -23 65 -6 19 -45 127 -87 240 -42 113 -87 241 -101 285 -14 44 -27 86
-29 93 -3 8 -28 12 -77 12 -40 0 -145 4 -233 10 -238 15 -377 17 -380 5z"/>
</g>
</svg>
